<svg xmlns="http://www.w3.org/2000/svg" viewBox="150 220 510 570"><path fill="#ce011f" d="M 351.328125 448.191406 L 351.328125 426.226562 C 343.957031 425.21875 336.480469 424.609375 328.855469 424.609375 C 236.933594 424.609375 162.15625 499.386719 162.15625 591.308594 C 162.15625 647.714844 190.339844 697.613281 233.335938 727.8125 C 205.582031 698.011719 189.117188 658.105469 189.117188 614.28125 C 189.117188 523.6875 261.234375 450.277344 351.328125 448.191406 Z M 351.328125 448.191406 " fill-opacity="1" fill-rule="nonzero"/><path fill="#ce011f" d="M 355.246094 690.890625 C 396.265625 690.890625 430.199219 657.78125 431.710938 617.160156 L 432.070312 254.671875 L 497.789062 254.671875 C 497.789062 254.671875 497.679688 254.167969 497.679688 254.167969 C 496.3125 246.726562 495.558594 239.035156 495.558594 231.195312 L 405 231.195312 L 404.855469 594.1875 C 403.347656 634.847656 369.875 667.453125 328.855469 667.453125 C 316.09375 667.453125 304.125 664.253906 293.554688 658.71875 C 307.394531 677.878906 329.863281 690.929688 355.28125 690.929688 Z M 355.246094 690.890625 " fill-opacity="1" fill-rule="nonzero"/><path fill="#ce011f" d="M 621.601562 378.414062 L 621.601562 357.128906 C 596.292969 357.128906 572.742188 349.617188 552.972656 336.710938 C 570.550781 356.914062 594.457031 372.589844 621.601562 378.375 Z M 621.601562 378.414062 " fill-opacity="1" fill-rule="nonzero"/><path fill="#ce011f" d="M 552.972656 336.746094 C 533.703125 314.601562 521.980469 285.734375 521.980469 254.132812 L 497.320312 254.132812 C 503.71875 288.644531 524.605469 318.269531 552.972656 336.746094 Z M 552.972656 336.746094 " fill-opacity="1" fill-rule="nonzero"/><path fill="#ce011f" d="M 328.855469 514.449219 C 286.867188 514.449219 252.210938 549.285156 252.210938 591.273438 C 252.210938 620.5 269.289062 645.917969 293.519531 658.679688 C 284.496094 646.171875 279.101562 630.855469 279.101562 614.28125 C 279.101562 572.292969 313.253906 538.140625 355.246094 538.140625 C 363.082031 538.140625 370.59375 539.433594 377.714844 541.664062 L 377.714844 449.199219 C 370.34375 448.191406 362.867188 447.582031 355.246094 447.582031 C 353.914062 447.582031 352.621094 447.652344 351.328125 447.6875 L 350.964844 447.6875 C 350.964844 447.6875 350.714844 517.683594 350.714844 517.683594 C 343.597656 515.453125 336.695312 514.484375 328.855469 514.484375 Z M 328.855469 514.449219 " fill-opacity="1" fill-rule="nonzero"/><path fill="#ce011f" d="M 621.601562 377.335938 L 621.167969 377.261719 L 621.167969 447.183594 C 574.183594 447.183594 530.539062 431.726562 495.019531 406.238281 L 495.019531 591.273438 C 495.019531 683.199219 420.78125 757.507812 328.855469 757.507812 C 293.339844 757.507812 260.40625 746.757812 233.300781 727.742188 C 263.75 760.421875 307.144531 780.949219 355.246094 780.949219 C 447.167969 780.949219 521.945312 706.171875 521.945312 614.246094 L 521.945312 430.179688 C 557.464844 455.667969 601 470.695312 647.953125 470.695312 L 647.953125 380.136719 C 638.890625 380.136719 630.085938 379.167969 621.566406 377.335938 Z M 621.601562 377.335938 " fill-opacity="1" fill-rule="nonzero"/><path fill="#ce011f" d="M 495.558594 591.273438 L 495.558594 407.207031 C 531.078125 432.699219 574.613281 447.726562 621.5625 447.726562 L 621.5625 377.335938 C 594.421875 371.511719 570.550781 356.949219 552.933594 336.746094 C 524.570312 318.230469 504.078125 288.644531 497.679688 254.132812 L 431.351562 254.132812 L 431.207031 617.121094 C 429.699219 657.78125 396.226562 690.390625 355.207031 690.390625 C 329.792969 690.390625 307.324219 677.84375 293.480469 658.644531 C 269.25 645.882812 252.679688 620.5 252.679688 591.238281 C 252.679688 549.25 286.832031 515.09375 328.820312 515.09375 C 336.660156 515.09375 344.171875 516.390625 351.289062 518.617188 L 351.289062 447.617188 C 261.164062 449.738281 188.507812 523.617188 188.507812 614.246094 C 188.507812 658.070312 205.546875 697.976562 233.265625 727.777344 C 260.335938 746.796875 293.265625 757.976562 328.820312 757.976562 C 420.746094 757.976562 495.523438 683.199219 495.523438 591.273438 Z M 495.558594 591.273438 " fill-opacity="1" fill-rule="nonzero"/></svg>
